<svg width="90" height="90" viewBox="0 0 90 90" fill="none" xmlns="http://www.w3.org/2000/svg">
<g clip-path="url(#clip0_12_261)">
<path d="M44.5269 0C19.9347 0 0 19.9347 0 44.5269C0 66.8482 16.4438 85.2824 37.8701 88.5017V56.3265H26.8542V44.6204H37.8701V36.8327C37.8701 23.9377 44.1529 18.2783 54.8705 18.2783C60.0045 18.2783 62.7161 18.6568 64.003 18.8304V29.0449H56.6917C52.141 29.0449 50.5514 33.3596 50.5514 38.2219V44.6204H63.8872L62.0794 56.3265H50.5558V88.5952C72.2894 85.6519 89.0538 67.0664 89.0538 44.5269C89.0538 19.9347 69.1191 0 44.5269 0Z" fill="#5B46AE"/>
</g>
<defs>
<clipPath id="clip0_12_261">
<rect width="89.0538" height="89.0538" fill="white"/>
</clipPath>
</defs>
</svg>
