<svg width="90" height="90" viewBox="0 0 90 90" fill="none" xmlns="http://www.w3.org/2000/svg">
<path d="M24.7372 0C11.0773 0 0 11.0773 0 24.7372V64.3166C0 77.9765 11.0773 89.0538 24.7372 89.0538H64.3166C77.9765 89.0538 89.0538 77.9765 89.0538 64.3166V24.7372C89.0538 11.0773 77.9765 0 64.3166 0H24.7372ZM74.2115 9.89487C76.9425 9.89487 79.1589 12.1113 79.1589 14.8423C79.1589 17.5733 76.9425 19.7897 74.2115 19.7897C71.4805 19.7897 69.2641 17.5733 69.2641 14.8423C69.2641 12.1113 71.4805 9.89487 74.2115 9.89487ZM44.5269 19.7897C58.1868 19.7897 69.2641 30.867 69.2641 44.5269C69.2641 58.1868 58.1868 69.2641 44.5269 69.2641C30.867 69.2641 19.7897 58.1868 19.7897 44.5269C19.7897 30.867 30.867 19.7897 44.5269 19.7897ZM44.5269 29.6846C40.5907 29.6846 36.8153 31.2483 34.0318 34.0318C31.2483 36.8153 29.6846 40.5907 29.6846 44.5269C29.6846 48.4631 31.2483 52.2385 34.0318 55.0219C36.8153 57.8053 40.5907 59.3692 44.5269 59.3692C48.4631 59.3692 52.2385 57.8053 55.0219 55.0219C57.8053 52.2385 59.3692 48.4631 59.3692 44.5269C59.3692 40.5907 57.8053 36.8153 55.0219 34.0318C52.2385 31.2483 48.4631 29.6846 44.5269 29.6846Z" fill="#48DFB7"/>
</svg>
