<svg width="50" height="50" viewBox="0 0 50 50" fill="none" xmlns="http://www.w3.org/2000/svg">
<g clip-path="url(#clip0_503_2)">
<path d="M25 40.3127C22.4041 40.3127 19.8393 39.6508 17.5832 38.3986C12.713 35.6974 9.68726 30.5631 9.68726 25C9.68726 19.4369 12.7129 14.3026 17.5834 11.6013C19.8394 10.3492 22.4041 9.6874 25 9.6874C28.3506 9.6874 31.5331 10.7502 34.2033 12.761C36.7847 14.7051 38.7207 17.4702 39.6547 20.5473C39.8775 21.2813 39.463 22.0568 38.7291 22.2797C37.9953 22.5026 37.2195 22.0882 36.9965 21.354C35.3829 16.0374 30.5619 12.4651 25 12.4651C22.8748 12.4651 20.7761 13.0063 18.9314 14.0303C14.9427 16.2425 12.4652 20.4458 12.4652 25C12.4652 29.5542 14.9427 33.7574 18.9309 35.9695C20.776 36.9937 22.8746 37.5349 25 37.5349C30.524 37.5349 35.3356 33.9938 36.973 28.7235C37.2007 27.9912 37.9785 27.5818 38.7115 27.8092C39.444 28.0368 39.8535 28.8151 39.6258 29.5477C38.6771 32.6015 36.7376 35.3433 34.1648 37.2682C31.5022 39.2599 28.3332 40.3127 25 40.3127Z" fill="#695F59"/>
<path d="M11.0763 25C11.0763 19.7569 13.9756 15.1907 18.2573 12.8158C22.5389 15.1905 25.4384 19.7567 25.4384 25C25.4384 30.2433 22.5391 34.8093 18.2573 37.1842C13.9756 34.8094 11.0763 30.2433 11.0763 25Z" fill="#877A72"/>
<path d="M18.2573 38.573C18.0251 38.573 17.7931 38.515 17.5835 38.3987C12.713 35.6972 9.68726 30.5631 9.68726 25C9.68726 19.4369 12.7129 14.3026 17.5834 11.6013C18.0026 11.3689 18.5118 11.3689 18.9308 11.6013C23.8014 14.3027 26.8271 19.4368 26.8271 25C26.8271 30.5632 23.8014 35.6974 18.9309 38.3987C18.7212 38.515 18.4893 38.573 18.2573 38.573ZM18.2573 14.4321C14.6656 16.7277 12.4651 20.708 12.4651 25C12.4651 29.292 14.6654 33.2723 18.2573 35.5681C21.849 33.2724 24.0495 29.2922 24.0495 25C24.0495 20.7078 21.849 16.7277 18.2573 14.4321Z" fill="#695F59"/>
<path d="M25 5.55537C24.2329 5.55537 23.6111 4.93359 23.6111 4.1665V1.38887C23.6111 0.621777 24.2329 0 25 0C25.7669 0 26.3888 0.621777 26.3888 1.38887V4.16641C26.3888 4.9335 25.767 5.55537 25 5.55537Z" fill="#695F59"/>
<path d="M25 50C24.2329 50 23.6111 49.3782 23.6111 48.6111V45.8336C23.6111 45.0665 24.2329 44.4447 25 44.4447C25.7669 44.4447 26.3888 45.0665 26.3888 45.8336V48.6111C26.3888 49.3782 25.767 50 25 50Z" fill="#695F59"/>
<path d="M10.2685 11.6573C9.91304 11.6573 9.55757 11.5218 9.28638 11.2505L7.32231 9.28662C6.77993 8.74424 6.77993 7.86484 7.32231 7.32227C7.8647 6.77978 8.74409 6.77988 9.28667 7.32227L11.2507 9.28633C11.7931 9.82871 11.7931 10.7081 11.2507 11.2507C10.9794 11.5218 10.6239 11.6573 10.2685 11.6573Z" fill="#695F59"/>
<path d="M41.6956 43.0845C41.3401 43.0845 40.9848 42.9489 40.7135 42.6776L38.7494 40.7136C38.2071 40.1712 38.2071 39.2918 38.7494 38.7492C39.2919 38.2068 40.1711 38.2068 40.7138 38.7492L42.6779 40.7133C43.2202 41.2557 43.2202 42.1351 42.6779 42.6776C42.4065 42.9489 42.0512 43.0845 41.6956 43.0845Z" fill="#695F59"/>
<path d="M39.7316 11.6573C39.376 11.6573 39.0207 11.5218 38.7494 11.2505C38.2071 10.7081 38.2071 9.82871 38.7494 9.28613L40.7135 7.32207C41.256 6.77969 42.1352 6.77969 42.6779 7.32207C43.2202 7.86445 43.2202 8.74385 42.6779 9.28643L40.7138 11.2505C40.4426 11.5218 40.0871 11.6573 39.7316 11.6573Z" fill="#695F59"/>
<path d="M8.30444 43.0845C7.94897 43.0845 7.59351 42.9489 7.32231 42.6776C6.77993 42.1353 6.77993 41.2559 7.32231 40.7133L9.28638 38.7492C9.82876 38.2068 10.7082 38.2068 11.2507 38.7492C11.7933 39.2916 11.7931 40.171 11.2507 40.7136L9.28677 42.6777C9.01528 42.9489 8.65991 43.0845 8.30444 43.0845Z" fill="#695F59"/>
<path d="M48.6111 26.3889H45.8336C45.0666 26.3889 44.4447 25.7671 44.4447 25C44.4447 24.2329 45.0667 23.6111 45.8336 23.6111H48.6111C49.3781 23.6111 50 24.2329 50 25C50 25.7671 49.3782 26.3889 48.6111 26.3889Z" fill="#695F59"/>
<path d="M4.16641 26.3889H1.38887C0.621777 26.3889 0 25.7671 0 25C0 24.2329 0.621777 23.6111 1.38887 23.6111H4.16641C4.9335 23.6111 5.55527 24.2329 5.55527 25C5.55527 25.7671 4.9335 26.3889 4.16641 26.3889Z" fill="#695F59"/>
</g>
<defs>
<clipPath id="clip0_503_2">
<rect width="50" height="50" fill="white"/>
</clipPath>
</defs>
</svg>
