<svg width="422" height="134" viewBox="0 0 422 134" fill="none" xmlns="http://www.w3.org/2000/svg">
<path d="M89.1121 52.16H94.4881V43.968H89.4961V40.128H98.5201V52.16H103.128V56H89.1121V52.16ZM99.5121 35.424C99.5121 35.8507 99.4268 36.256 99.2561 36.64C99.1068 37.0027 98.8935 37.3227 98.6161 37.6C98.3388 37.856 98.0081 38.0693 97.6241 38.24C97.2615 38.3893 96.8775 38.464 96.4721 38.464C96.0455 38.464 95.6508 38.3893 95.2881 38.24C94.9255 38.0693 94.6055 37.856 94.3281 37.6C94.0508 37.3227 93.8268 37.0027 93.6561 36.64C93.5068 36.256 93.4321 35.8507 93.4321 35.424C93.4321 34.9973 93.5068 34.6027 93.6561 34.24C93.8268 33.856 94.0508 33.536 94.3281 33.28C94.6055 33.0027 94.9255 32.7893 95.2881 32.64C95.6508 32.4693 96.0455 32.384 96.4721 32.384C96.8775 32.384 97.2615 32.4693 97.6241 32.64C98.0081 32.7893 98.3388 33.0027 98.6161 33.28C98.8935 33.536 99.1068 33.856 99.2561 34.24C99.4268 34.6027 99.5121 34.9973 99.5121 35.424ZM124.354 56H120.322V44.864C120.322 44.416 120.205 44.0853 119.97 43.872C119.757 43.6373 119.469 43.52 119.106 43.52C118.679 43.52 118.338 43.648 118.082 43.904C117.847 44.16 117.73 44.544 117.73 45.056V56H113.698V44.864C113.698 44.416 113.57 44.0853 113.314 43.872C113.079 43.6373 112.791 43.52 112.45 43.52C112.066 43.52 111.746 43.648 111.49 43.904C111.234 44.16 111.106 44.544 111.106 45.056V56H107.074V40.128H111.106V41.664H111.682C111.81 41.088 112.098 40.6187 112.546 40.256C113.015 39.872 113.623 39.68 114.37 39.68C115.074 39.68 115.671 39.872 116.162 40.256C116.653 40.6187 116.983 41.088 117.154 41.664H117.73C117.901 41.088 118.253 40.6187 118.786 40.256C119.341 39.872 120.023 39.68 120.834 39.68C121.901 39.68 122.754 40.0427 123.394 40.768C124.034 41.472 124.354 42.4533 124.354 43.712V56ZM138.284 53.696C137.857 54.6987 137.26 55.4133 136.492 55.84C135.724 56.2453 134.828 56.448 133.804 56.448C132.844 56.448 131.937 56.2667 131.084 55.904C130.252 55.5413 129.516 55.008 128.876 54.304C128.236 53.6 127.724 52.7467 127.34 51.744C126.977 50.7413 126.796 49.6 126.796 48.32V47.808C126.796 46.5493 126.977 45.4187 127.34 44.416C127.702 43.4133 128.193 42.56 128.812 41.856C129.43 41.152 130.145 40.6187 130.956 40.256C131.788 39.872 132.673 39.68 133.612 39.68C134.742 39.68 135.649 39.872 136.332 40.256C137.036 40.64 137.59 41.2373 137.996 42.048H138.572V40.128H142.604V51.2C142.604 51.84 142.892 52.16 143.468 52.16H144.076V56H141.324C140.598 56 140.001 55.7867 139.532 55.36C139.084 54.9333 138.86 54.3787 138.86 53.696H138.284ZM134.7 52.608C135.873 52.608 136.812 52.224 137.516 51.456C138.22 50.6667 138.572 49.6 138.572 48.256V47.872C138.572 46.528 138.22 45.472 137.516 44.704C136.812 43.9147 135.873 43.52 134.7 43.52C133.526 43.52 132.588 43.9147 131.884 44.704C131.18 45.472 130.828 46.528 130.828 47.872V48.256C130.828 49.6 131.18 50.6667 131.884 51.456C132.588 52.224 133.526 52.608 134.7 52.608ZM158.933 53.696H158.357C158.187 54.0587 157.973 54.4107 157.717 54.752C157.483 55.072 157.163 55.36 156.757 55.616C156.373 55.872 155.904 56.0747 155.349 56.224C154.816 56.3733 154.165 56.448 153.397 56.448C152.416 56.448 151.499 56.2773 150.645 55.936C149.813 55.5733 149.077 55.0507 148.437 54.368C147.819 53.664 147.328 52.8107 146.965 51.808C146.624 50.8053 146.453 49.6533 146.453 48.352V47.776C146.453 46.496 146.635 45.3547 146.997 44.352C147.381 43.3493 147.893 42.5067 148.533 41.824C149.195 41.12 149.952 40.5867 150.805 40.224C151.68 39.8613 152.597 39.68 153.557 39.68C154.837 39.68 155.851 39.9253 156.597 40.416C157.344 40.8853 157.931 41.5573 158.357 42.432H158.933V40.128H162.965V59.904C162.965 60.6293 162.731 61.2267 162.261 61.696C161.813 62.1653 161.227 62.4 160.501 62.4H149.813V58.56H158.069C158.645 58.56 158.933 58.24 158.933 57.6V53.696ZM154.709 52.608C155.968 52.608 156.981 52.2133 157.749 51.424C158.539 50.6133 158.933 49.5573 158.933 48.256V47.872C158.933 46.5707 158.539 45.5253 157.749 44.736C156.981 43.9253 155.968 43.52 154.709 43.52C153.451 43.52 152.427 43.9147 151.637 44.704C150.869 45.472 150.485 46.528 150.485 47.872V48.256C150.485 49.6 150.869 50.6667 151.637 51.456C152.427 52.224 153.451 52.608 154.709 52.608ZM167.487 52.16H172.863V43.968H167.871V40.128H176.895V52.16H181.503V56H167.487V52.16ZM177.887 35.424C177.887 35.8507 177.802 36.256 177.631 36.64C177.482 37.0027 177.268 37.3227 176.991 37.6C176.714 37.856 176.383 38.0693 175.999 38.24C175.636 38.3893 175.252 38.464 174.847 38.464C174.42 38.464 174.026 38.3893 173.663 38.24C173.3 38.0693 172.98 37.856 172.703 37.6C172.426 37.3227 172.202 37.0027 172.031 36.64C171.882 36.256 171.807 35.8507 171.807 35.424C171.807 34.9973 171.882 34.6027 172.031 34.24C172.202 33.856 172.426 33.536 172.703 33.28C172.98 33.0027 173.3 32.7893 173.663 32.64C174.026 32.4693 174.42 32.384 174.847 32.384C175.252 32.384 175.636 32.4693 175.999 32.64C176.383 32.7893 176.714 33.0027 176.991 33.28C177.268 33.536 177.482 33.856 177.631 34.24C177.802 34.6027 177.887 34.9973 177.887 35.424ZM190.825 56H186.793V40.128H190.825V42.496H191.401C191.764 41.6 192.35 40.9067 193.161 40.416C193.972 39.9253 194.921 39.68 196.009 39.68C196.777 39.68 197.492 39.808 198.153 40.064C198.836 40.2987 199.433 40.672 199.945 41.184C200.457 41.696 200.852 42.3467 201.129 43.136C201.428 43.9253 201.577 44.864 201.577 45.952V56H197.545V46.976C197.545 45.8453 197.268 44.96 196.713 44.32C196.18 43.6587 195.401 43.328 194.377 43.328C193.182 43.328 192.286 43.7333 191.689 44.544C191.113 45.3333 190.825 46.4 190.825 47.744V56ZM216.659 53.696C216.232 54.6987 215.635 55.4133 214.867 55.84C214.099 56.2453 213.203 56.448 212.179 56.448C211.219 56.448 210.312 56.2667 209.459 55.904C208.627 55.5413 207.891 55.008 207.251 54.304C206.611 53.6 206.099 52.7467 205.715 51.744C205.352 50.7413 205.171 49.6 205.171 48.32V47.808C205.171 46.5493 205.352 45.4187 205.715 44.416C206.077 43.4133 206.568 42.56 207.187 41.856C207.805 41.152 208.52 40.6187 209.331 40.256C210.163 39.872 211.048 39.68 211.987 39.68C213.117 39.68 214.024 39.872 214.707 40.256C215.411 40.64 215.965 41.2373 216.371 42.048H216.947V40.128H220.979V51.2C220.979 51.84 221.267 52.16 221.843 52.16H222.451V56H219.699C218.973 56 218.376 55.7867 217.907 55.36C217.459 54.9333 217.235 54.3787 217.235 53.696H216.659ZM213.075 52.608C214.248 52.608 215.187 52.224 215.891 51.456C216.595 50.6667 216.947 49.6 216.947 48.256V47.872C216.947 46.528 216.595 45.472 215.891 44.704C215.187 43.9147 214.248 43.52 213.075 43.52C211.901 43.52 210.963 43.9147 210.259 44.704C209.555 45.472 209.203 46.528 209.203 47.872V48.256C209.203 49.6 209.555 50.6667 210.259 51.456C210.963 52.224 211.901 52.608 213.075 52.608ZM225.212 40.128H231.932V42.432H232.508C232.807 41.5573 233.308 40.8853 234.012 40.416C234.738 39.9253 235.602 39.68 236.604 39.68C238.183 39.68 239.452 40.1813 240.412 41.184C241.372 42.1653 241.852 43.6693 241.852 45.696V46.4L237.692 46.784V46.336C237.692 45.4613 237.468 44.768 237.02 44.256C236.572 43.7227 235.9 43.456 235.004 43.456C234.108 43.456 233.404 43.7653 232.892 44.384C232.38 45.0027 232.124 45.888 232.124 47.04V52.16H235.772V56H224.828V52.16H228.092V43.968H225.212V40.128ZM256.326 40.128H260.358V59.904C260.358 60.6293 260.123 61.2267 259.654 61.696C259.206 62.1653 258.619 62.4 257.894 62.4H248.454V58.56H255.462C256.038 58.56 256.326 58.24 256.326 57.6V53.696H255.75C255.046 55.5307 253.531 56.448 251.206 56.448C250.417 56.448 249.681 56.32 248.998 56.064C248.315 55.808 247.718 55.4133 247.206 54.88C246.694 54.3467 246.289 53.6853 245.99 52.896C245.713 52.0853 245.574 51.136 245.574 50.048V40.128H249.606V49.216C249.606 50.3467 249.873 51.232 250.406 51.872C250.939 52.4907 251.739 52.8 252.806 52.8C254.022 52.8 254.907 52.416 255.462 51.648C256.038 50.8587 256.326 49.792 256.326 48.448V40.128Z" fill="#48DFB7"/>
<path d="M15.1646 67.72L23.8006 87.44L32.6406 67.72H47.0566L30.3966 100.02V116H17.2046V99.884L0.816609 67.72H15.1646ZM64.4811 116.68C61.3077 116.68 58.4971 116.181 56.0491 115.184C53.6011 114.187 51.5384 112.827 49.8611 111.104C48.2291 109.336 46.9824 107.341 46.1211 105.12C45.3051 102.899 44.8971 100.564 44.8971 98.116C44.8971 95.668 45.3051 93.3333 46.1211 91.112C46.9824 88.8453 48.2291 86.8507 49.8611 85.128C51.5384 83.4053 53.6011 82.0453 56.0491 81.048C58.4971 80.0507 61.3077 79.552 64.4811 79.552C67.6997 79.552 70.5104 80.0507 72.9131 81.048C75.3611 82.0453 77.4011 83.4053 79.0331 85.128C80.7104 86.8507 81.9571 88.8453 82.7731 91.112C83.6344 93.3333 84.0651 95.668 84.0651 98.116C84.0651 100.564 83.6344 102.899 82.7731 105.12C81.9571 107.341 80.7104 109.336 79.0331 111.104C77.4011 112.827 75.3611 114.187 72.9131 115.184C70.5104 116.181 67.6997 116.68 64.4811 116.68ZM58.1571 98.116C58.1571 99.7027 58.4291 101.085 58.9731 102.264C59.5171 103.397 60.2651 104.281 61.2171 104.916C62.1691 105.505 63.2571 105.8 64.4811 105.8C65.7051 105.8 66.7931 105.505 67.7451 104.916C68.6971 104.281 69.4451 103.397 69.9891 102.264C70.5331 101.085 70.8051 99.7027 70.8051 98.116C70.8051 96.5293 70.5331 95.1693 69.9891 94.036C69.4451 92.8573 68.6971 91.9733 67.7451 91.384C66.7931 90.7493 65.7051 90.432 64.4811 90.432C63.2571 90.432 62.1691 90.7493 61.2171 91.384C60.2651 91.9733 59.5171 92.8573 58.9731 94.036C58.4291 95.1693 58.1571 96.5293 58.1571 98.116ZM91.6986 103.76V80.232H104.619V100.836C104.619 102.377 104.959 103.601 105.639 104.508C106.364 105.369 107.339 105.8 108.563 105.8C109.243 105.8 109.923 105.709 110.603 105.528C111.283 105.347 111.963 104.984 112.643 104.44C113.368 103.896 114.071 103.125 114.751 102.128V80.232H127.671V101.72C127.671 102.944 127.852 103.805 128.215 104.304C128.577 104.757 129.212 105.029 130.119 105.12V116C128.985 116.227 127.965 116.385 127.059 116.476C126.152 116.612 125.359 116.68 124.679 116.68C122.503 116.68 120.78 116.272 119.511 115.456C118.241 114.64 117.425 113.393 117.063 111.716L116.791 110.424C115.113 112.645 113.096 114.255 110.739 115.252C108.427 116.204 105.797 116.68 102.851 116.68C99.2693 116.68 96.5039 115.569 94.5546 113.348C92.6506 111.127 91.6986 107.931 91.6986 103.76ZM163.078 91.248C160.585 91.248 158.318 91.52 156.278 92.064C154.238 92.608 152.719 93.5147 151.722 94.784V116H138.802V80.232H150.634V87.032C151.903 84.6293 153.49 82.7933 155.394 81.524C157.298 80.2093 159.315 79.552 161.446 79.552C161.945 79.552 162.285 79.552 162.466 79.552C162.693 79.552 162.897 79.5747 163.078 79.62V91.248ZM188.654 116V67.72H209.462C211.819 67.72 213.995 68.196 215.99 69.148C217.985 70.1 219.707 71.392 221.158 73.024C222.609 74.6107 223.719 76.4013 224.49 78.396C225.306 80.3907 225.714 82.408 225.714 84.448C225.714 87.304 225.034 90.0013 223.674 92.54C222.359 95.0787 220.501 97.164 218.098 98.796C215.741 100.383 212.975 101.176 209.802 101.176H201.914V116H188.654ZM201.914 89.616H208.918C209.462 89.616 209.983 89.4573 210.482 89.14C210.981 88.8227 211.389 88.2787 211.706 87.508C212.069 86.7373 212.25 85.7173 212.25 84.448C212.25 83.088 212.046 82.0453 211.638 81.32C211.275 80.5493 210.799 80.028 210.21 79.756C209.666 79.4387 209.122 79.28 208.578 79.28H201.914V89.616ZM257.813 91.248C255.32 91.248 253.053 91.52 251.013 92.064C248.973 92.608 247.454 93.5147 246.457 94.784V116H233.537V80.232H245.369V87.032C246.638 84.6293 248.225 82.7933 250.129 81.524C252.033 80.2093 254.05 79.552 256.181 79.552C256.68 79.552 257.02 79.552 257.201 79.552C257.428 79.552 257.632 79.5747 257.813 79.62V91.248ZM282.838 116.68C279.665 116.68 276.854 116.181 274.406 115.184C271.958 114.187 269.895 112.827 268.218 111.104C266.586 109.336 265.339 107.341 264.478 105.12C263.662 102.899 263.254 100.564 263.254 98.116C263.254 95.668 263.662 93.3333 264.478 91.112C265.339 88.8453 266.586 86.8507 268.218 85.128C269.895 83.4053 271.958 82.0453 274.406 81.048C276.854 80.0507 279.665 79.552 282.838 79.552C286.057 79.552 288.867 80.0507 291.27 81.048C293.718 82.0453 295.758 83.4053 297.39 85.128C299.067 86.8507 300.314 88.8453 301.13 91.112C301.991 93.3333 302.422 95.668 302.422 98.116C302.422 100.564 301.991 102.899 301.13 105.12C300.314 107.341 299.067 109.336 297.39 111.104C295.758 112.827 293.718 114.187 291.27 115.184C288.867 116.181 286.057 116.68 282.838 116.68ZM276.514 98.116C276.514 99.7027 276.786 101.085 277.33 102.264C277.874 103.397 278.622 104.281 279.574 104.916C280.526 105.505 281.614 105.8 282.838 105.8C284.062 105.8 285.15 105.505 286.102 104.916C287.054 104.281 287.802 103.397 288.346 102.264C288.89 101.085 289.162 99.7027 289.162 98.116C289.162 96.5293 288.89 95.1693 288.346 94.036C287.802 92.8573 287.054 91.9733 286.102 91.384C285.15 90.7493 284.062 90.432 282.838 90.432C281.614 90.432 280.526 90.7493 279.574 91.384C278.622 91.9733 277.874 92.8573 277.33 94.036C276.786 95.1693 276.514 96.5293 276.514 98.116ZM312.912 94.104H308.492V84.38H312.912V80.504C312.912 78.2373 313.297 76.1973 314.068 74.384C314.884 72.5707 316.017 71.0293 317.468 69.76C318.918 68.4453 320.641 67.448 322.636 66.768C324.63 66.0427 326.806 65.68 329.164 65.68C330.932 65.68 332.632 65.884 334.264 66.292C335.941 66.6547 337.641 67.244 339.364 68.06C341.086 68.876 342.9 69.896 344.804 71.12L339.908 80.912C338.366 79.552 336.734 78.4867 335.012 77.716C333.289 76.9453 331.634 76.56 330.048 76.56C329.186 76.56 328.438 76.696 327.804 76.968C327.169 77.1947 326.67 77.58 326.308 78.124C325.99 78.6227 325.832 79.2573 325.832 80.028V84.38H346.164V116H333.244V94.104H325.832V116H312.912V94.104ZM355.758 66.36H368.678V101.788C368.678 103.103 368.95 104.123 369.494 104.848C370.083 105.528 370.922 105.868 372.01 105.868C372.554 105.868 373.143 105.777 373.778 105.596C374.413 105.415 375.002 105.165 375.546 104.848L377.178 114.368C375.637 115.093 373.891 115.66 371.942 116.068C370.038 116.476 368.225 116.68 366.502 116.68C363.057 116.68 360.405 115.796 358.546 114.028C356.687 112.215 355.758 109.653 355.758 106.344V66.36ZM401.214 116.68C398.086 116.68 395.298 116.204 392.85 115.252C390.402 114.255 388.339 112.917 386.662 111.24C385.03 109.563 383.783 107.636 382.922 105.46C382.061 103.284 381.63 100.995 381.63 98.592C381.63 95.1467 382.378 91.996 383.874 89.14C385.37 86.2387 387.569 83.9267 390.47 82.204C393.371 80.436 396.953 79.552 401.214 79.552C405.475 79.552 409.057 80.4133 411.958 82.136C414.859 83.8587 417.058 86.1253 418.554 88.936C420.05 91.7467 420.798 94.8067 420.798 98.116C420.798 98.796 420.753 99.4987 420.662 100.224C420.617 100.904 420.549 101.516 420.458 102.06H395.366C395.457 103.329 395.797 104.372 396.386 105.188C397.021 105.959 397.791 106.525 398.698 106.888C399.65 107.251 400.625 107.432 401.622 107.432C403.027 107.432 404.342 107.115 405.566 106.48C406.835 105.845 407.674 104.961 408.082 103.828L419.03 106.956C418.078 108.86 416.741 110.537 415.018 111.988C413.341 113.439 411.346 114.595 409.034 115.456C406.722 116.272 404.115 116.68 401.214 116.68ZM395.094 94.308H406.926C406.79 93.1293 406.45 92.132 405.906 91.316C405.407 90.5 404.727 89.8653 403.866 89.412C403.05 88.9587 402.098 88.732 401.01 88.732C399.922 88.732 398.947 88.9587 398.086 89.412C397.27 89.8653 396.59 90.5 396.046 91.316C395.547 92.132 395.23 93.1293 395.094 94.308Z" fill="#5B46AE"/>
<path d="M270 15L273.182 26.818L285 30L273.182 33.182L270 45L266.818 33.182L255 30L266.818 26.818L270 15Z" fill="#48DFB7"/>
<path d="M76 0L79.182 11.818L91 15L79.182 18.182L76 30L72.818 18.182L61 15L72.818 11.818L76 0Z" fill="#48DFB7"/>
<path d="M174 57L177.182 68.818L189 72L177.182 75.182L174 87L170.818 75.182L159 72L170.818 68.818L174 57Z" fill="#48DFB7"/>
</svg>
