<svg width="86" height="70" viewBox="0 0 86 70" fill="none" xmlns="http://www.w3.org/2000/svg">
<path d="M85.9219 8.28535C82.7621 9.68549 79.3678 10.6315 75.7994 11.0591C79.4814 8.85597 82.2359 5.38851 83.5493 1.30369C80.0899 3.35841 76.3041 4.80472 72.3558 5.57973C69.7009 2.74494 66.1843 0.865982 62.352 0.234591C58.5195 -0.396801 54.586 0.254694 51.162 2.08796C47.7378 3.9212 45.0149 6.83364 43.4157 10.3731C41.8162 13.9125 41.4303 17.8808 42.3176 21.6621C35.3083 21.3102 28.4512 19.4884 22.1916 16.3149C15.9319 13.1413 10.4095 8.68709 5.98266 3.24115C4.46902 5.85218 3.59866 8.87947 3.59866 12.1035C3.59699 15.0059 4.31172 17.8638 5.67947 20.4237C7.04723 22.9836 9.02568 25.1665 11.4393 26.7784C8.64014 26.6893 5.9027 25.9329 3.45488 24.5723V24.7992C3.45459 28.8698 4.86269 32.8154 7.44023 35.966C10.0178 39.1169 13.606 41.2788 17.5961 42.0851C14.9994 42.7878 12.2769 42.8912 9.63433 42.3876C10.7601 45.8904 12.953 48.9533 15.906 51.1475C18.859 53.342 22.4243 54.558 26.1028 54.6255C19.8584 59.5275 12.1465 62.1864 4.2079 62.1748C2.80166 62.1751 1.39661 62.0931 0 61.9287C8.05815 67.11 17.4384 69.8596 27.0185 69.8488C59.4483 69.8488 77.1768 42.9894 77.1768 19.6945C77.1768 18.9376 77.1579 18.1733 77.1239 17.4164C80.5722 14.9226 83.549 11.8345 85.9143 8.29671L85.9219 8.28535Z" fill="#48DFB7"/>
</svg>
