<svg width="87" height="70" viewBox="0 0 87 70" fill="none" xmlns="http://www.w3.org/2000/svg">
<path d="M86.5999 8.28389C83.4401 9.68403 80.0458 10.63 76.4774 11.0576C80.1594 8.8545 82.9138 5.38705 84.2273 1.30223C80.7679 3.35694 76.982 4.80326 73.0337 5.57827C70.3788 2.74347 66.8623 0.864517 63.03 0.233126C59.1975 -0.398266 55.264 0.25323 51.84 2.0865C48.4158 3.91974 45.6929 6.83217 44.0937 10.3716C42.4942 13.911 42.1083 17.8793 42.9956 21.6606C35.9863 21.3087 29.1291 19.4869 22.8696 16.3134C16.6099 13.1399 11.0875 8.68563 6.66064 3.23969C5.147 5.85072 4.27664 8.87801 4.27664 12.1021C4.27497 15.0045 4.98969 17.8623 6.35745 20.4222C7.72521 22.9821 9.70366 25.165 12.1173 26.7769C9.31811 26.6878 6.58068 25.9314 4.13286 24.5708V24.7977C4.13256 28.8683 5.54067 32.8139 8.11821 35.9646C10.6957 39.1154 14.284 41.2773 18.2741 42.0836C15.6773 42.7863 12.9549 42.8897 10.3123 42.3861C11.4381 45.8889 13.6309 48.9518 16.584 51.1461C19.537 53.3406 23.1023 54.5566 26.7808 54.624C20.5363 59.526 12.8245 62.185 4.88588 62.1734C3.47964 62.1736 2.07459 62.0916 0.677979 61.9272C8.73613 67.1086 18.1164 69.8582 27.6964 69.8474C60.1263 69.8474 77.8548 42.9879 77.8548 19.6931C77.8548 18.9361 77.8359 18.1719 77.8019 17.4149C81.2502 14.9211 84.227 11.833 86.5923 8.29525L86.5999 8.28389Z" fill="#5B46AE"/>
</svg>
