<svg width="90" height="74" viewBox="0 0 90 74" fill="none" xmlns="http://www.w3.org/2000/svg">
<path d="M87.5999 11.2839C84.4401 12.684 81.0458 13.63 77.4774 14.0576C81.1594 11.8545 83.9138 8.38705 85.2273 4.30223C81.7679 6.35694 77.982 7.80326 74.0337 8.57827C71.3788 5.74347 67.8623 3.86452 64.03 3.23313C60.1975 2.60173 56.264 3.25323 52.84 5.0865C49.4158 6.91974 46.6929 9.83217 45.0937 13.3716C43.4942 16.911 43.1083 20.8793 43.9956 24.6606C36.9863 24.3087 30.1291 22.4869 23.8696 19.3134C17.6099 16.1399 12.0875 11.6856 7.66064 6.23969C6.147 8.85072 5.27664 11.878 5.27664 15.1021C5.27497 18.0045 5.98969 20.8623 7.35745 23.4222C8.72521 25.9821 10.7037 28.165 13.1173 29.7769C10.3181 29.6878 7.58068 28.9314 5.13286 27.5708V27.7977C5.13256 31.8683 6.54067 35.8139 9.11821 38.9646C11.6957 42.1154 15.284 44.2773 19.2741 45.0836C16.6773 45.7863 13.9549 45.8897 11.3123 45.3861C12.4381 48.8889 14.6309 51.9518 17.584 54.1461C20.537 56.3406 24.1023 57.5566 27.7808 57.624C21.5363 62.526 13.8245 65.185 5.88588 65.1734C4.47964 65.1736 3.07459 65.0916 1.67798 64.9272C9.73613 70.1086 19.1164 72.8582 28.6964 72.8474C61.1263 72.8474 78.8548 45.9879 78.8548 22.6931C78.8548 21.9361 78.8359 21.1719 78.8019 20.4149C82.2502 17.9211 85.227 14.833 87.5923 11.2952L87.5999 11.2839Z" fill="#5B46AE"/>
</svg>
